<mxfile host="app.diagrams.net" modified="2024-04-05T02:02:41.448Z" agent="Mozilla/5.0 (Windows NT 10.0; Win64; x64) AppleWebKit/537.36 (KHTML, like Gecko) Chrome/123.0.0.0 Safari/537.36" version="24.2.2" etag="HHKYgRkfB6gGvIJ2AJL8" type="github">
  <diagram name="Page-1" id="ML5XNuJlOTP5fJv_nJXO">
    <mxGraphModel>
      <root>
        <mxCell id="0" />
        <mxCell id="1" parent="0" />#never got a chance to finish this UML
      </root>
    </mxGraphModel>
  </diagram>
</mxfile>
